<svg width="24" height="24" viewBox="0 0 24 24" fill="none" xmlns="http://www.w3.org/2000/svg">
<path d="M16.8 5.59676C16.7998 6.22689 16.6755 6.85081 16.4341 7.4329C16.1928 8.01499 15.8392 8.54384 15.3934 8.98927C14.9477 9.43469 14.4186 9.78796 13.8364 10.0289C13.2541 10.2699 12.6301 10.3938 12 10.3936C11.051 10.3932 10.1233 10.1115 9.33441 9.58399C8.54549 9.05647 7.93072 8.30686 7.56783 7.42995C7.20495 6.55303 7.11024 5.5882 7.2957 4.65746C7.48116 3.72673 7.93845 2.87189 8.60974 2.20104C9.28103 1.5302 10.1362 1.07348 11.067 0.888643C11.9979 0.703806 12.9627 0.799152 13.8393 1.16262C14.716 1.5261 15.4652 2.14137 15.9922 2.93064C16.5192 3.71991 16.8003 4.64772 16.8 5.59676V5.59676Z" stroke="#8C8B97" stroke-linecap="square"/>
<path d="M20 23.1839H4V19.9903C4 18.7173 4.50571 17.4964 5.40589 16.5962C6.30606 15.696 7.52696 15.1903 8.8 15.1903H15.2C16.473 15.1903 17.6939 15.696 18.5941 16.5962C19.4943 17.4964 20 18.7173 20 19.9903V23.1855V23.1839Z" stroke="#8C8B97" stroke-linecap="square"/>
</svg>
