<svg width="24" height="24" viewBox="0 0 24 24" fill="none" xmlns="http://www.w3.org/2000/svg">
<g clip-path="url(#clip0_25_18)">
<path d="M12 1.80005L12.52 1.19205C12.3751 1.06811 12.1907 1 12 1C11.8093 1 11.6249 1.06811 11.48 1.19205L12 1.80005ZM0.8 11.4001L0.28 10.7921L0 11.0321V11.4001H0.8ZM8.8 24.2001V25.0001C9.01217 25.0001 9.21566 24.9158 9.36569 24.7657C9.51571 24.6157 9.6 24.4122 9.6 24.2001H8.8ZM15.2 24.2001H14.4C14.4 24.4122 14.4843 24.6157 14.6343 24.7657C14.7843 24.9158 14.9878 25.0001 15.2 25.0001V24.2001ZM23.2 11.4001H24V11.0321L23.72 10.7921L23.2 11.4001ZM2.4 25.0001H8.8V23.4001H2.4V25.0001ZM23.72 10.7921L12.52 1.19205L11.48 2.40805L22.68 12.0081L23.72 10.7921ZM11.48 1.19205L0.28 10.7921L1.32 12.0081L12.52 2.40805L11.48 1.19205ZM9.6 24.2001V19.4001H8V24.2001H9.6ZM14.4 19.4001V24.2001H16V19.4001H14.4ZM15.2 25.0001H21.6V23.4001H15.2V25.0001ZM24 22.6001V11.4001H22.4V22.6001H24ZM0 11.4001V22.6001H1.6V11.4001H0ZM12 17.0001C12.6365 17.0001 13.247 17.2529 13.6971 17.703C14.1471 18.1531 14.4 18.7635 14.4 19.4001H16C16 18.3392 15.5786 17.3218 14.8284 16.5716C14.0783 15.8215 13.0609 15.4001 12 15.4001V17.0001ZM12 15.4001C10.9391 15.4001 9.92172 15.8215 9.17157 16.5716C8.42143 17.3218 8 18.3392 8 19.4001H9.6C9.6 18.7635 9.85286 18.1531 10.3029 17.703C10.753 17.2529 11.3635 17.0001 12 17.0001V15.4001ZM21.6 25.0001C22.2365 25.0001 22.847 24.7472 23.2971 24.2971C23.7471 23.847 24 23.2366 24 22.6001H22.4C22.4 22.8122 22.3157 23.0157 22.1657 23.1657C22.0157 23.3158 21.8122 23.4001 21.6 23.4001V25.0001ZM2.4 23.4001C2.18783 23.4001 1.98434 23.3158 1.83431 23.1657C1.68429 23.0157 1.6 22.8122 1.6 22.6001H0C0 23.2366 0.252856 23.847 0.702944 24.2971C1.15303 24.7472 1.76348 25.0001 2.4 25.0001V23.4001Z" fill="#E82626"/>
</g>
<defs>
<clipPath id="clip0_25_18">
<rect width="24" height="24" fill="white"/>
</clipPath>
</defs>
</svg>
