<svg width="24" height="24" viewBox="0 0 24 24" fill="none" xmlns="http://www.w3.org/2000/svg">
<path d="M7.2 16.8L6.4848 16.4416C6.4099 16.5917 6.38405 16.7615 6.41091 16.927C6.43777 17.0926 6.51598 17.2455 6.63448 17.3641C6.75298 17.4828 6.90578 17.5613 7.07129 17.5884C7.23679 17.6155 7.40663 17.5899 7.5568 17.5152L7.2 16.8ZM10.4 10.4L10.0416 9.6848C9.88729 9.76213 9.76213 9.88729 9.6848 10.0416L10.4 10.4ZM16.8 7.2L17.5152 7.5584C17.5901 7.40834 17.6159 7.23854 17.5891 7.073C17.5622 6.90745 17.484 6.75453 17.3655 6.63585C17.247 6.51718 17.0942 6.43874 16.9287 6.41164C16.7632 6.38453 16.5934 6.41012 16.4432 6.4848L16.8 7.2ZM13.6 13.6L13.9584 14.3152C14.1127 14.2379 14.2379 14.1127 14.3152 13.9584L13.6 13.6ZM12 22.4C9.24175 22.4 6.59647 21.3043 4.64609 19.3539C2.69571 17.4035 1.6 14.7583 1.6 12H0C0 15.1826 1.26428 18.2348 3.51472 20.4853C5.76516 22.7357 8.8174 24 12 24V22.4ZM22.4 12C22.4 13.3657 22.131 14.7181 21.6083 15.9799C21.0857 17.2417 20.3196 18.3882 19.3539 19.3539C18.3882 20.3196 17.2417 21.0857 15.9799 21.6083C14.7181 22.131 13.3657 22.4 12 22.4V24C15.1826 24 18.2348 22.7357 20.4853 20.4853C22.7357 18.2348 24 15.1826 24 12H22.4ZM12 1.6C13.3657 1.6 14.7181 1.869 15.9799 2.39165C17.2417 2.9143 18.3882 3.68036 19.3539 4.64609C20.3196 5.61182 21.0857 6.75831 21.6083 8.02009C22.131 9.28188 22.4 10.6343 22.4 12H24C24 8.8174 22.7357 5.76516 20.4853 3.51472C18.2348 1.26428 15.1826 0 12 0V1.6ZM12 0C8.8174 0 5.76516 1.26428 3.51472 3.51472C1.26428 5.76516 0 8.8174 0 12H1.6C1.6 9.24175 2.69571 6.59647 4.64609 4.64609C6.59647 2.69571 9.24175 1.6 12 1.6V0ZM7.9152 17.1584L11.1152 10.7584L9.6848 10.0416L6.4848 16.4416L7.9152 17.1584ZM10.7584 11.1152L17.1584 7.9152L16.4416 6.4848L10.0416 9.6848L10.7584 11.1152ZM16.0848 6.8432L12.8848 13.2432L14.3152 13.9584L17.5152 7.5584L16.0848 6.8416V6.8432ZM13.2416 12.8832L6.8416 16.0832L7.5584 17.5136L13.9584 14.3136L13.2416 12.8832Z" fill="#8C8B97"/>
</svg>
