<svg width="24" height="24" viewBox="0 0 24 24" fill="none" xmlns="http://www.w3.org/2000/svg">
<path d="M20 23.2L19.5008 23.824C19.6184 23.9179 19.7602 23.9768 19.9098 23.9938C20.0593 24.0107 20.2107 23.9852 20.3464 23.92C20.4821 23.8548 20.5966 23.7527 20.6769 23.6253C20.7571 23.498 20.7998 23.3505 20.8 23.2H20ZM20 0.8H20.8V0H20V0.8ZM4.00001 0.8V0H3.20001V0.8H4.00001ZM4.00001 23.2H3.20001C3.20023 23.3505 3.24291 23.498 3.32316 23.6253C3.4034 23.7527 3.51796 23.8548 3.65365 23.92C3.78935 23.9852 3.94068 24.0107 4.09026 23.9938C4.23983 23.9768 4.38158 23.9179 4.49921 23.824L4.00001 23.2ZM12 16.8L12.4992 16.176C12.3575 16.0628 12.1814 16.0011 12 16.0011C11.8186 16.0011 11.6426 16.0628 11.5008 16.176L12 16.8ZM20.8 23.2V0.8H19.2V23.2H20.8ZM3.20001 0.8V23.2H4.80001V0.8H3.20001ZM4.49921 23.824L12.4992 17.424L11.5008 16.176L3.50081 22.576L4.49921 23.824ZM11.5008 17.424L19.5008 23.824L20.4992 22.576L12.4992 16.176L11.5008 17.424ZM20 0H4.00001V1.6H20V0Z" fill="#8C8B97"/>
</svg>
